<?xml version="1.0" encoding="UTF-8"?>
<svg version="1.1" xmlns="http://www.w3.org/2000/svg" width="1840" height="1840">
<path d="M0 0 C0.78479012 0.01746843 1.56958025 0.03493687 2.37815189 0.05293465 C4.01111266 0.09103674 5.64389192 0.13788853 7.27635574 0.19333649 C9.50882234 0.26765909 11.7397412 0.31646895 13.97311401 0.35247803 C17.63060006 0.41266951 21.28721154 0.49417441 24.9441185 0.58246803 C29.35714711 0.68818986 33.77039024 0.78447119 38.18359375 0.88256836 C39.6164698 0.91464968 39.6164698 0.91464968 41.07829285 0.94737911 C77.66095428 1.76544992 114.24284751 2.37639333 150.83178711 2.81591797 C152.1999908 2.83240119 152.1999908 2.83240119 153.59583497 2.84921741 C172.07111226 3.07156485 190.5464775 3.28564732 209.0220015 3.48648208 C216.08570156 3.56334444 223.1493717 3.64264973 230.21302676 3.72353989 C234.33949785 3.77059126 238.46597295 3.81609028 242.59250259 3.85771751 C295.9928412 4.39804412 295.9928412 4.39804412 305.66772461 12.27294922 C309.37616674 16.35582808 311.95593326 20.36659911 314.24194336 25.39794922 C314.56312134 26.08493393 314.88429932 26.77191864 315.21520996 27.47972107 C316.27005582 29.74042692 317.31244385 32.0066564 318.35522461 34.27294922 C319.10137408 35.87636195 319.84854585 37.4792993 320.59667969 39.08178711 C322.1642089 42.44093838 323.72779924 45.80188134 325.28881836 49.1640625 C328.72908953 56.56392096 332.2222905 63.93867954 335.71832275 71.31231689 C336.85781513 73.71591356 337.99598068 76.12013538 339.1340332 78.52441406 C344.26822982 89.36350514 349.47216825 100.16710815 354.70727539 110.95776367 C358.46910406 118.73231797 362.12315969 126.55058803 365.73022461 134.39794922 C372.71219808 149.56796352 380.08643274 164.54388826 387.43511963 179.53866577 C388.09746613 180.89020248 388.09746613 180.89020248 388.77319336 182.26904297 C389.20750671 183.15516266 389.64182007 184.04128235 390.08929443 184.95425415 C393.716299 192.35978876 397.29288991 199.78791717 400.83569336 207.23413086 C404.15455862 214.2094291 407.50970622 221.16682257 410.87301636 228.12075806 C413.47527024 233.50288258 416.07163096 238.88785124 418.66772461 244.27294922 C419.16208008 245.29759277 419.65643555 246.32223633 420.16577148 247.37792969 C421.46248662 250.07002306 422.75376568 252.76463557 424.04272461 255.46044922 C424.41800293 256.23807617 424.79328125 257.01570313 425.17993164 257.81689453 C427.66772461 263.04234089 427.66772461 263.04234089 427.66772461 265.27294922 C433.46532318 260.34247313 438.91141542 255.15151616 444.26147461 249.74169922 C445.0524353 248.9469519 445.843396 248.15220459 446.6583252 247.33337402 C449.16391984 244.8156649 451.66623319 242.29473476 454.16772461 239.77294922 C457.46684141 236.44706732 460.76936834 233.12462585 464.07397461 229.80419922 C464.81691772 229.05295776 465.55986084 228.30171631 466.32531738 227.52770996 C470.37921839 223.45506312 474.51900149 219.55972744 478.88987732 215.82814026 C481.81636271 213.26816569 484.51481861 210.4904383 487.23022461 207.71044922 C490.65516901 204.22862849 494.04612285 200.84094959 497.85522461 197.77294922 C500.64859529 195.28995305 501.65778153 193.80774998 502.66772461 190.27294922 C504.62817087 188.31250296 508.30701734 188.86448709 510.99194336 188.72216797 C511.7509343 188.68032883 512.50992523 188.63848969 513.29191589 188.59538269 C522.35233759 188.13514278 531.40987756 188.07599941 540.48022461 188.08544922 C541.38081604 188.08538879 542.28140747 188.08532837 543.20928955 188.08526611 C565.70298397 188.10650755 588.14502592 189.17117465 610.54272461 191.27294922 C611.30891113 191.34368652 612.07509766 191.41442383 612.86450195 191.48730469 C617.03010741 191.92827798 620.74773458 192.79834482 624.66772461 194.27294922 C625.58292325 230.08772256 620.99807773 265.45058767 613.66772461 300.46044922 C613.33067505 302.14436768 613.33067505 302.14436768 612.98681641 303.86230469 C611.67920051 309.77992202 610.61562884 313.4041873 605.66772461 317.27294922 C604.84014648 318.05154297 604.01256836 318.83013672 603.15991211 319.63232422 C598.61132932 323.78714909 594.02718926 327.84372084 589.23022461 331.71044922 C584.6913484 335.3712498 580.40411909 339.22542235 576.13964844 343.19555664 C572.99409197 346.10649839 569.76955325 348.8535288 566.41772461 351.52294922 C560.84850981 356.00095357 555.67589082 360.85678488 550.50073242 365.78173828 C546.59952667 369.49034042 542.62835756 373.08837437 538.56298828 376.61621094 C535.79863599 379.03266007 533.10614664 381.52270818 530.41772461 384.02294922 C529.29027973 385.06739202 528.16267185 386.1116589 527.03491211 387.15576172 C526.47384766 387.67557617 525.9127832 388.19539063 525.3347168 388.73095703 C517.15795409 396.29458229 508.9161504 403.78766519 500.66772461 411.27294922 C503.86843205 419.92789337 507.95697168 428.09298574 512.10913086 436.31591797 C512.83976669 437.77089392 513.56997727 439.2260835 514.29978943 440.68147278 C516.21721622 444.50309742 518.13907847 448.32247167 520.06231689 452.14117432 C523.11457351 458.20245987 526.16162339 464.26635446 529.20564079 470.33178139 C530.24846339 472.40753969 531.29415417 474.48183134 532.34022522 476.55595398 C535.68439007 483.20282725 538.96573345 489.87384711 542.15328979 496.59736729 C550.58054135 514.36771366 559.42346274 531.93112249 568.2235024 549.5188303 C570.63031195 554.32987932 573.03513469 559.14192141 575.44029236 563.95379639 C579.47405951 572.02313839 583.50949138 580.0916462 587.54589844 588.15966797 C592.18637573 597.435176 596.82396258 606.71212485 601.46006209 615.98982167 C605.47166216 624.01758513 609.48484587 632.04455546 613.49931329 640.07088542 C615.88349865 644.83771182 618.26717088 649.60479272 620.64940071 654.37259674 C622.88929425 658.85530998 625.13119946 663.33701181 627.37454796 667.81799698 C628.18861264 669.44482412 629.00202686 671.07197696 629.81467438 672.69951248 C634.51560768 682.11312619 639.30934648 691.4702088 644.23629385 700.76781201 C647.64070372 707.19281116 650.92669911 713.67037279 654.16044617 720.18322754 C655.11963496 722.11490293 656.08169317 724.0451292 657.04431152 725.97509766 C659.43035707 730.76024228 661.81191505 735.5476163 664.19354248 740.33496094 C666.54715828 745.06546929 668.90269881 749.79501149 671.26147461 754.52294922 C671.58753189 755.17658447 671.91358917 755.83021973 672.24952698 756.50366211 C676.47902828 764.97546799 680.78657515 773.39954399 685.23242188 781.76025391 C689.28409666 789.39114971 693.13136314 797.12054647 696.97042847 804.86004639 C702.60860527 816.22262603 708.25699553 827.5721986 714.23413086 838.76123047 C718.03276961 845.89363958 721.61090743 853.13320484 725.20629883 860.36962891 C728.69006513 867.36401998 732.28174528 874.29135509 735.94897461 881.19091797 C739.54703808 887.98470555 742.99014606 894.85150091 746.38671875 901.74804688 C749.26870663 907.57057445 752.26461519 913.32663348 755.30053711 919.06982422 C760.48117423 928.87367035 765.53264271 938.74104322 770.56488037 948.6217041 C777.44826082 962.13488323 784.33673298 975.64398323 791.38085938 989.07421875 C795.6204191 997.16173535 799.80209593 1005.27858474 803.98022461 1013.39794922 C805.43849656 1016.23131415 806.89683773 1019.06464344 808.35522461 1021.89794922 C808.71595566 1022.59878632 809.07668671 1023.29962341 809.448349 1024.021698 C817.97927086 1040.59283611 826.5438969 1057.14649923 835.17626953 1073.66503906 C839.06516568 1081.10903173 842.93072525 1088.56497279 846.79272461 1096.02294922 C851.11193308 1104.36224067 855.4540969 1112.68833799 859.84008789 1120.99267578 C863.48388836 1127.90154634 867.07671012 1134.83652529 870.66772461 1141.77294922 C875.07770796 1150.29065199 879.5049544 1158.79827489 883.98461914 1167.27954102 C886.17984612 1171.43795367 888.36166914 1175.60283645 890.52709961 1179.77685547 C895.3552724 1189.07976617 900.22925512 1198.34573602 905.29272461 1207.52294922 C911.03020569 1217.93430774 916.44063008 1228.50530891 921.85159302 1239.08843994 C926.80631247 1248.77433647 931.85061273 1258.39067271 937.12084961 1267.90966797 C941.63667344 1276.11238359 945.90077036 1284.43911812 950.16772461 1292.77294922 C955.38183775 1302.95620276 960.67745038 1313.07464297 966.21069336 1323.08935547 C970.66929182 1331.19258483 974.89839654 1339.40938724 979.12445068 1347.63516235 C984.35391928 1357.80797401 989.75205169 1367.87842418 995.27709961 1377.89404297 C1002.84912512 1391.70486724 1002.84912512 1391.70486724 1000.73022461 1399.89794922 C997.61676468 1404.99270182 993.34610024 1408.38015734 987.66772461 1410.27294922 C985.73042066 1410.36744576 983.78994848 1410.40088883 981.8503418 1410.40234375 C980.00366913 1410.40700401 980.00366913 1410.40700401 978.11968994 1410.41175842 C976.73465958 1410.40993996 975.34962946 1410.40793338 973.96459961 1410.40576172 C972.48012263 1410.40682628 970.99564585 1410.40821512 969.51116943 1410.40989685 C965.36415218 1410.41276981 961.21717207 1410.40816986 957.07015991 1410.40172195 C954.40582226 1410.39793229 951.74148823 1410.39587222 949.07714844 1410.39425659 C912.89426714 1410.36873329 876.71227962 1410.1278606 840.5304718 1409.86678314 C836.95160412 1409.84098791 833.37273232 1409.81582854 829.79385877 1409.7908628 C813.98439461 1409.68029952 798.17525427 1409.55196321 782.36620712 1409.39211655 C774.26609999 1409.31116459 766.16609403 1409.24831141 758.06572199 1409.20069581 C751.85454804 1409.16322505 745.64359201 1409.11118165 739.4326148 1409.04923171 C735.72957405 1409.01282965 732.02676568 1408.98294091 728.32356262 1408.96997261 C724.2354333 1408.95545516 720.14818059 1408.91016947 716.06030273 1408.86254883 C714.26409988 1408.8633825 714.26409988 1408.8633825 712.43161011 1408.86423302 C703.47406422 1408.72198211 695.9528891 1407.02192266 688.35522461 1402.14794922 C681.83445343 1395.17224052 677.87204634 1385.96991199 673.65332031 1377.48706055 C673.08489914 1376.35211655 672.51647797 1375.21717255 671.93083191 1374.0478363 C670.38552271 1370.9620212 668.84517041 1367.87375705 667.30586267 1364.78494477 C665.67745841 1361.51925156 664.04475499 1358.25570856 662.41264343 1354.99186707 C659.66722137 1349.50008906 656.92488479 1344.00677942 654.18457031 1338.51245117 C651.04810113 1332.22388773 647.90753725 1325.93738386 644.7645219 1319.65208989 C641.38279578 1312.8893225 638.00414647 1306.12502121 634.62634635 1299.3602922 C633.6710111 1297.4475239 632.71513255 1295.53502802 631.75911903 1293.62259865 C625.8178235 1281.73521793 619.90218142 1269.83954684 614.19995117 1257.83520508 C608.02794723 1244.84446924 601.59700875 1231.9842911 595.16017413 1219.12352276 C593.45403668 1215.71383869 591.74990485 1212.30315226 590.04542542 1208.89263916 C587.188617 1203.17722064 584.33015538 1197.46263135 581.47070312 1191.74853516 C578.1935143 1185.19960566 574.91921938 1178.64923543 571.64640754 1172.09811759 C568.80253168 1166.4057883 565.9570583 1160.7142596 563.11031204 1155.02336526 C561.42477171 1151.65382089 559.73972916 1148.28403053 558.05615044 1144.91350555 C549.49964056 1127.76051707 549.49964056 1127.76051707 540.65625 1110.75439453 C534.37057243 1098.92656042 528.43664719 1086.92051112 522.46349716 1074.9329567 C520.78567816 1071.56714473 519.10513085 1068.20269558 517.42480469 1064.83813477 C512.81037038 1055.59735713 508.20000176 1046.35455268 503.58970642 1037.11170959 C499.35549078 1028.62294889 495.12035494 1020.13465035 490.88194942 1011.64798069 C489.22054826 1008.32107101 487.5599808 1004.9937512 485.90151978 1001.66537476 C479.72041119 989.26084025 473.52192105 976.87190082 467.02523041 964.62867737 C463.64355581 958.25403401 460.38411369 951.82590721 457.17500305 945.3626709 C456.21581426 943.4309955 455.25375605 941.50076924 454.2911377 939.57080078 C451.90509215 934.78565616 449.52353417 929.99828213 447.14190674 925.2109375 C444.78829094 920.48042915 442.43275271 915.7508858 440.07397461 911.02294922 C439.74725266 910.36798462 439.4205307 909.71302002 439.08390808 909.03820801 C434.9003434 900.65844518 430.63887532 892.32687076 426.23925781 884.05810547 C420.50725375 873.25607988 415.13744597 862.26783867 409.69946289 851.31591797 C404.34841178 840.54605835 398.94310431 829.81767799 393.30712891 819.19384766 C389.19471012 811.42366585 385.27225409 803.56276937 381.36584473 795.6875 C375.79719719 784.46510079 370.22232196 773.25398102 364.31225586 762.20654297 C360.11139469 754.31357543 356.16261714 746.29385293 352.18087769 738.28900146 C347.98997795 729.86753595 343.7275011 721.49333533 339.30444336 713.19091797 C335.44535685 705.91999008 331.79257401 698.5496388 328.13012695 691.17822266 C324.64852701 684.18819825 321.06176675 677.26367563 317.39306641 670.37036133 C314.14582016 664.24506647 311.05363657 658.0494745 307.98022461 651.83544922 C304.16157718 644.1232527 300.19576192 636.59816998 295.66772461 629.27294922 C287.68880769 638.88834217 279.78178442 648.54650927 272.11450195 658.41259766 C270.55881707 660.41298895 268.99824206 662.40950495 267.43725586 664.40576172 C254.41090949 681.0831361 241.5477885 697.86372146 229.23999023 715.08007812 C227.65593162 717.28939715 226.06205172 719.49126718 224.46459961 721.69091797 C221.18436524 726.20782355 217.91996606 730.73584749 214.66772461 735.27294922 C213.90250488 736.34029297 213.90250488 736.34029297 213.12182617 737.42919922 C204.66209353 749.2738978 196.55433828 761.35137952 188.48022461 773.46044922 C187.97679535 774.2150946 187.47336609 774.96973999 186.9546814 775.74725342 C177.58786995 789.7985207 168.27668658 803.8942192 159.41772461 818.27294922 C158.88453613 819.13702393 158.35134766 820.00109863 157.80200195 820.89135742 C142.11426378 846.38676654 126.89523368 872.15060434 112.75366211 898.53857422 C110.82956665 902.12846519 108.88182062 905.70217862 106.89428711 909.25732422 C91.25254116 937.308115 77.28227746 966.30299023 64.27270508 995.65722656 C62.80298273 998.96823781 61.31814866 1002.27193006 59.82788086 1005.57373047 C46.49893357 1035.26764957 34.60544002 1065.62297013 23.66772461 1096.27294922 C23.37724243 1097.08640808 23.08676025 1097.89986694 22.78747559 1098.73797607 C0.12092741 1162.37062866 -17.94232373 1227.85663444 -29.26586914 1294.49169922 C-29.42492737 1295.42314255 -29.5839856 1296.35458588 -29.74786377 1297.31425476 C-30.51607531 1301.82701687 -31.26751057 1306.34143347 -31.98803711 1310.86206055 C-32.25487939 1312.47432485 -32.52195636 1314.08655033 -32.78930664 1315.69873047 C-32.90149033 1316.43937744 -33.01367401 1317.18002441 -33.1292572 1317.94311523 C-33.47607422 1319.99291992 -33.47607422 1319.99291992 -34.33227539 1323.27294922 C-37.33227539 1325.27294922 -37.33227539 1325.27294922 -40.01977539 1324.89794922 C-40.78290039 1324.69169922 -41.54602539 1324.48544922 -42.33227539 1324.27294922 C-43.19451359 1321.34953933 -43.39823509 1318.96770218 -43.17382812 1315.93408203 C-43.08225433 1314.64067398 -43.08225433 1314.64067398 -42.98883057 1313.32113647 C-42.9152533 1312.38226593 -42.84167603 1311.44339539 -42.76586914 1310.47607422 C-42.65538239 1308.98281113 -42.65538239 1308.98281113 -42.54266357 1307.4593811 C-42.29365702 1304.14651264 -42.03292466 1300.83472295 -41.76977539 1297.52294922 C-41.67991364 1296.37538147 -41.59005188 1295.22781372 -41.49746704 1294.04547119 C-32.83725946 1184.19553237 -14.2791025 1075.46022808 121.66772461 693.27294922 C122.45493896 691.66347412 122.45493896 691.66347412 123.25805664 690.02148438 C129.40066902 677.50427901 135.80320342 665.16630152 142.54272461 652.96044922 C144.7409869 648.97679623 146.90310282 644.97590382 149.04272461 640.96044922 C156.91430359 626.18894102 165.11292191 611.65908937 173.66772461 597.27294922 C174.27229492 596.25346191 174.87686523 595.23397461 175.49975586 594.18359375 C190.77343036 568.45549099 206.72661562 543.18663627 223.29272461 518.27294922 C224.03848755 517.15073975 224.03848755 517.15073975 224.79931641 516.00585938 C225.26378174 515.31024902 225.72824707 514.61463867 226.20678711 513.89794922 C226.63378906 513.25470703 227.06079102 512.61146484 227.50073242 511.94873047 C228.66772461 510.27294922 228.66772461 510.27294922 230.56616211 508.08544922 C231.90926424 506.29541753 231.90926424 506.29541753 231.39453125 503.98242188 C230.61818912 501.08828518 229.5411373 498.75661382 228.14038086 496.10888672 C227.60485596 495.08746582 227.06933105 494.06604492 226.51757812 493.01367188 C225.92775146 491.9029834 225.3379248 490.79229492 224.73022461 489.64794922 C223.78032091 487.84124688 222.83283217 486.03329014 221.88536072 484.22531128 C221.21100431 482.93890096 220.53590691 481.65287884 219.86012268 480.36721802 C216.15271807 473.31001437 212.51234386 466.21869208 208.87347412 459.12597656 C206.95520342 455.38754542 205.03422476 451.65050698 203.11303711 447.91357422 C202.54765732 446.81378235 202.54765732 446.81378235 201.97085571 445.69177246 C197.75649099 437.49666056 193.52050657 429.31279023 189.28344727 421.12939453 C184.90939964 412.67934457 180.54874444 404.22247616 176.19378662 395.76257324 C168.94243761 381.67621283 161.66503008 367.60368755 154.36499023 353.54248047 C151.48524461 347.99507635 148.6076292 342.4465679 145.73022461 336.89794922 C145.15651123 335.79177246 144.58279785 334.6855957 143.99169922 333.54589844 C140.9491316 327.67811979 137.90958618 321.80879485 134.87475586 315.93701172 C134.40051178 315.01946106 134.40051178 315.01946106 133.91668701 314.08337402 C133.60040344 313.47143188 133.28411987 312.85948975 132.95825195 312.22900391 C127.37672854 301.4299772 121.78023353 290.63906771 116.15112305 279.86474609 C109.36132069 266.86492438 102.62328464 253.83820686 95.87670898 240.81591797 C89.33826826 228.19637008 82.79169439 215.58129888 76.21069336 202.98388672 C72.30555278 195.50507638 68.42250595 188.01494078 64.54272461 180.52294922 C60.60839436 172.92679645 56.66222758 165.3376428 52.66772461 157.77294922 C48.06126634 149.04934941 43.52143266 140.29172118 38.98461914 131.53173828 C33.72497877 121.37745292 28.43884757 111.23718462 23.14428711 101.10107422 C21.629999 98.2006917 20.11737952 95.29944443 18.60522461 92.39794922 C13.57781065 82.75260841 8.53921427 73.11353253 3.46508789 63.49267578 C1.1622248 59.12304609 -1.12940676 54.74778984 -3.41040039 50.36669922 C-3.93762695 49.35414063 -4.46485352 48.34158203 -5.00805664 47.29833984 C-6.02204338 45.34962339 -7.03513456 43.40044054 -8.04711914 41.45068359 C-10.98296432 35.80823046 -14.00075506 30.22422892 -17.12426758 24.68310547 C-19.43100044 20.08082843 -20.0237873 15.39013733 -19.33227539 10.27294922 C-15.27578065 1.83544015 -8.69177907 -0.38166266 0 0 Z M408.96850586 249.74169922 C405.68727408 253.09384171 402.46676453 256.4569959 399.41772461 260.02294922 C395.88714128 264.13656466 392.07326436 267.92798634 388.1940918 271.70947266 C384.7890927 275.0554124 381.63798236 278.56152213 378.51538086 282.17138672 C374.67866963 286.53534157 370.63200757 290.70706541 366.62866211 294.91748047 C362.73147281 299.03285218 358.93068194 303.20898873 355.2175293 307.49121094 C353.2774762 309.72159964 351.28722158 311.90372935 349.29272461 314.08544922 C346.1824361 317.52673127 343.20294149 321.0361622 340.29272461 324.64794922 C337.04819514 328.66121738 333.68020995 332.49705789 330.16772461 336.27294922 C325.91247177 340.85230681 321.89450237 345.56580352 317.97241211 350.43701172 C315.45977997 353.52882687 312.88121564 356.5572917 310.29272461 359.58544922 C306.06477594 364.54805448 302.00125764 369.61695145 298.00195312 374.76489258 C294.33437191 379.4691183 290.54526678 384.06292717 286.73022461 388.64794922 C281.70910856 394.69875841 276.88851944 400.85846157 272.21142578 407.17822266 C268.40443937 412.31812743 264.49032281 417.36546615 260.54272461 422.39794922 C255.17209281 429.26418158 250.02662156 436.2468672 245.01293945 443.37597656 C241.81992156 447.87865334 238.55880131 452.3332936 235.30810547 456.79443359 C234.27367259 458.2208808 233.24564774 459.65199889 232.22436523 461.08789062 C231.13483062 462.61727186 230.0278099 464.13427726 228.90795898 465.64160156 C228.34915039 466.42100098 227.7903418 467.20040039 227.21459961 468.00341797 C226.70251953 468.70233154 226.19043945 469.40124512 225.6628418 470.12133789 C224.34074613 472.97993189 224.71730923 474.30080319 225.66772461 477.27294922 C226.44289974 478.99498031 227.28241255 480.68897375 228.17163086 482.35498047 C228.66469727 483.28632812 229.15776367 484.21767578 229.66577148 485.17724609 C230.18204102 486.13695312 230.69831055 487.09666016 231.23022461 488.08544922 C231.75036133 489.06449219 232.27049805 490.04353516 232.80639648 491.05224609 C234.08781629 493.46225582 235.37507171 495.86895141 236.66772461 498.27294922 C239.32486292 495.71994926 241.57751351 493.17507843 243.66381836 490.14013672 C244.21537598 489.34357666 244.76693359 488.5470166 245.33520508 487.72631836 C245.91931152 486.87545654 246.50341797 486.02459473 247.10522461 485.14794922 C248.36595623 483.33085768 249.62769551 481.51446491 250.89038086 479.69873047 C251.84195068 478.329021 251.84195068 478.329021 252.81274414 476.93164062 C261.49667083 464.4852124 270.58477399 452.35976008 279.81616211 440.31591797 C282.70745514 436.54097617 285.56309478 432.74203423 288.3972168 428.92407227 C293.99027552 421.39142469 299.81667536 414.08193555 305.76538086 406.82763672 C308.57464753 403.39977473 311.29896325 399.91263453 314.00366211 396.40185547 C317.47610276 391.95941379 321.08688204 387.62802802 324.66772461 383.27294922 C325.38959961 382.38607422 326.11147461 381.49919922 326.85522461 380.58544922 C335.60159392 369.83990978 344.6062988 359.31523348 353.63647461 348.80810547 C355.64545803 346.46924077 357.64479994 344.12266116 359.63647461 341.76904297 C365.32447254 335.06192202 371.14896189 328.52169483 377.16137695 322.10327148 C379.90071955 319.1789053 382.61049276 316.24348828 385.23022461 313.21044922 C389.68624949 308.05544005 394.34185452 303.08205446 398.97924805 298.09082031 C400.13189378 296.84984285 401.28354351 295.6079397 402.43432617 294.36523438 C409.381137 286.86365657 416.34994918 279.4164919 423.66772461 272.27294922 C422.06096008 266.81701251 419.61741567 261.94273451 417.04272461 256.89794922 C416.62249023 256.06650391 416.20225586 255.23505859 415.76928711 254.37841797 C414.73906386 252.34138563 413.7051364 250.30632733 412.66772461 248.27294922 C410.5455723 248.05497029 410.5455723 248.05497029 408.96850586 249.74169922 Z M477.14819336 432.76513672 C474.81329897 435.10797047 472.48388027 437.45571139 470.1640625 439.81347656 C469.07532837 440.9148999 469.07532837 440.9148999 467.96459961 442.03857422 C467.32876953 442.68600586 466.69293945 443.3334375 466.0378418 444.00048828 C464.02676801 445.92869953 461.97696309 447.75402124 459.87011719 449.57495117 C455.79260108 453.11964331 451.94579108 456.84994726 448.13256836 460.67529297 C447.45021622 461.35668839 446.76786407 462.0380838 446.06483459 462.74012756 C444.63428024 464.17000663 443.20496694 465.60112833 441.77685547 467.03344727 C439.61073387 469.20492633 437.43932287 471.37101247 435.26733398 473.53662109 C433.86792474 474.93669124 432.46882577 476.3370716 431.07006836 477.73779297 C430.43133286 478.37450424 429.79259735 479.01121552 429.13450623 479.66722107 C425.34690963 483.47425254 421.76331383 487.40367805 418.25196838 491.46632385 C416.28032906 493.71472379 414.20542969 495.83233944 412.07397461 497.92919922 C411.27088867 498.72455078 410.46780273 499.51990234 409.64038086 500.33935547 C407.99194336 501.9617513 406.34350586 503.58414714 404.69506836 505.20654297 C400.33128693 509.52829761 396.14285298 513.91538098 392.14233398 518.57568359 C389.85512 521.20825174 387.36174943 523.60285628 384.85522461 526.02294922 C382.95745914 527.97493656 381.17041008 529.96811241 379.38647461 532.02294922 C375.14930812 536.90156309 370.71622247 541.58257622 366.27319336 546.27294922 C362.50876878 550.26339515 358.84030827 554.31790066 355.24389648 558.46044922 C353.24670806 560.75709216 351.2104598 563.01679393 349.16772461 565.27294922 C341.71996669 573.53432775 334.4835812 581.97107012 327.25268555 590.421875 C325.20528502 592.81303193 323.15437443 595.20116473 321.10351562 597.58935547 C319.12121891 599.89950475 317.14271085 602.21288426 315.16430664 604.52636719 C313.6261909 606.32142102 312.08256751 608.11164559 310.53881836 609.90185547 C309.53992103 611.06704913 308.54121582 612.23240753 307.54272461 613.39794922 C306.8503772 614.19664429 306.8503772 614.19664429 306.14404297 615.01147461 C302.86572355 618.82097855 302.86572355 618.82097855 300.66772461 623.27294922 C301.25713409 625.49499115 301.25713409 625.49499115 302.55444336 627.67919922 C302.99852539 628.50548828 303.44260742 629.33177734 303.90014648 630.18310547 C304.62041016 631.46507812 304.62041016 631.46507812 305.35522461 632.77294922 C305.81606445 633.62759766 306.2769043 634.48224609 306.75170898 635.36279297 C308.84933446 639.20994012 310.97413212 642.80772661 313.66772461 646.27294922 C319.04844058 640.40885924 324.2208061 634.42910644 329.23022461 628.24560547 C333.43436015 623.11844658 337.77799227 618.11127407 342.10620117 613.08886719 C343.67030991 611.26994274 345.22853537 609.44614843 346.78491211 607.62060547 C351.99897229 601.50810992 357.25726818 595.45072345 362.65600586 589.49951172 C364.5150713 587.44190531 366.34700819 585.36448159 368.16772461 583.27294922 C372.27856272 578.55590457 376.4758965 573.91794793 380.66772461 569.27294922 C381.75053711 568.06638672 381.75053711 568.06638672 382.85522461 566.83544922 C388.27477545 560.79652114 393.74189733 554.80242244 399.23510742 548.83056641 C400.18022183 547.80298803 401.12489313 546.77500191 402.0690918 545.74658203 C405.59057384 541.91142587 409.12473315 538.08824136 412.66772461 534.27294922 C413.5668457 533.30397705 413.5668457 533.30397705 414.48413086 532.31542969 C422.75667142 523.41650323 431.15247887 514.67220294 439.82080078 506.15673828 C442.98806425 503.02992763 446.05341091 499.88077171 448.94897461 496.49951172 C453.25258564 491.50634829 457.91514362 486.87559997 462.58300781 482.22729492 C464.10264129 480.71302342 465.61684978 479.19347492 467.13061523 477.67333984 C471.83042414 472.97064891 476.58790014 468.40578135 481.64160156 464.08081055 C485.96659978 460.22171767 489.97559653 456.02480018 494.04272461 451.89794922 C495.81906601 450.09619521 497.597598 448.29659739 499.37866211 446.49951172 C500.15516113 445.71141113 500.93166016 444.92331055 501.73168945 444.11132812 C503.66772461 442.27294922 503.66772461 442.27294922 505.66772461 441.27294922 C505.08356992 437.65901614 504.11292063 434.84818737 502.38256836 431.62841797 C501.93461914 430.78730469 501.48666992 429.94619141 501.02514648 429.07958984 C500.55657227 428.21527344 500.08799805 427.35095703 499.60522461 426.46044922 C498.8965625 425.1349707 498.8965625 425.1349707 498.17358398 423.78271484 C497.01069177 421.60963344 495.84194086 419.43992638 494.66772461 417.27294922 C490.0068055 417.27294922 480.44132889 429.47269492 477.14819336 432.76513672 Z " fill="#EFA734" transform="translate(357.332275390625,289.72705078125)"/>
<path d="M0 0 C0.78479012 0.01746843 1.56958025 0.03493687 2.37815189 0.05293465 C4.01111266 0.09103674 5.64389192 0.13788853 7.27635574 0.19333649 C9.50882234 0.26765909 11.7397412 0.31646895 13.97311401 0.35247803 C17.63060006 0.41266951 21.28721154 0.49417441 24.9441185 0.58246803 C29.35714711 0.68818986 33.77039024 0.78447119 38.18359375 0.88256836 C39.6164698 0.91464968 39.6164698 0.91464968 41.07829285 0.94737911 C77.66095428 1.76544992 114.24284751 2.37639333 150.83178711 2.81591797 C152.1999908 2.83240119 152.1999908 2.83240119 153.59583497 2.84921741 C172.07111226 3.07156485 190.5464775 3.28564732 209.0220015 3.48648208 C216.08570156 3.56334444 223.1493717 3.64264973 230.21302676 3.72353989 C234.33949785 3.77059126 238.46597295 3.81609028 242.59250259 3.85771751 C295.9928412 4.39804412 295.9928412 4.39804412 305.66772461 12.27294922 C309.37616674 16.35582808 311.95593326 20.36659911 314.24194336 25.39794922 C314.56312134 26.08493393 314.88429932 26.77191864 315.21520996 27.47972107 C316.27005582 29.74042692 317.31244385 32.0066564 318.35522461 34.27294922 C319.10137408 35.87636195 319.84854585 37.4792993 320.59667969 39.08178711 C322.1642089 42.44093838 323.72779924 45.80188134 325.28881836 49.1640625 C328.72908953 56.56392096 332.2222905 63.93867954 335.71832275 71.31231689 C336.85781513 73.71591356 337.99598068 76.12013538 339.1340332 78.52441406 C344.26822982 89.36350514 349.47216825 100.16710815 354.70727539 110.95776367 C358.46910406 118.73231797 362.12315969 126.55058803 365.73022461 134.39794922 C372.71219808 149.56796352 380.08643274 164.54388826 387.43511963 179.53866577 C388.09746613 180.89020248 388.09746613 180.89020248 388.77319336 182.26904297 C389.20750671 183.15516266 389.64182007 184.04128235 390.08929443 184.95425415 C393.716299 192.35978876 397.29288991 199.78791717 400.83569336 207.23413086 C404.15455862 214.2094291 407.50970622 221.16682257 410.87301636 228.12075806 C413.47527024 233.50288258 416.07163096 238.88785124 418.66772461 244.27294922 C419.16208008 245.29759277 419.65643555 246.32223633 420.16577148 247.37792969 C421.46248662 250.07002306 422.75376568 252.76463557 424.04272461 255.46044922 C424.41800293 256.23807617 424.79328125 257.01570313 425.17993164 257.81689453 C427.66772461 263.04234089 427.66772461 263.04234089 427.66772461 265.27294922 C433.46532318 260.34247313 438.91141542 255.15151616 444.26147461 249.74169922 C445.0524353 248.9469519 445.843396 248.15220459 446.6583252 247.33337402 C449.16391984 244.8156649 451.66623319 242.29473476 454.16772461 239.77294922 C457.46684141 236.44706732 460.76936834 233.12462585 464.07397461 229.80419922 C464.81691772 229.05295776 465.55986084 228.30171631 466.32531738 227.52770996 C470.37921839 223.45506312 474.51900149 219.55972744 478.88987732 215.82814026 C481.81636271 213.26816569 484.51481861 210.4904383 487.23022461 207.71044922 C490.65516901 204.22862849 494.04612285 200.84094959 497.85522461 197.77294922 C500.64859529 195.28995305 501.65778153 193.80774998 502.66772461 190.27294922 C504.62817087 188.31250296 508.30701734 188.86448709 510.99194336 188.72216797 C511.7509343 188.68032883 512.50992523 188.63848969 513.29191589 188.59538269 C522.35233759 188.13514278 531.40987756 188.07599941 540.48022461 188.08544922 C541.38081604 188.08538879 542.28140747 188.08532837 543.20928955 188.08526611 C565.70298397 188.10650755 588.14502592 189.17117465 610.54272461 191.27294922 C611.30891113 191.34368652 612.07509766 191.41442383 612.86450195 191.48730469 C617.03010741 191.92827798 620.74773458 192.79834482 624.66772461 194.27294922 C625.58292325 230.08772256 620.99807773 265.45058767 613.66772461 300.46044922 C613.33067505 302.14436768 613.33067505 302.14436768 612.98681641 303.86230469 C611.67920051 309.77992202 610.61562884 313.4041873 605.66772461 317.27294922 C604.84014648 318.05154297 604.01256836 318.83013672 603.15991211 319.63232422 C598.61132932 323.78714909 594.02718926 327.84372084 589.23022461 331.71044922 C584.6913484 335.3712498 580.40411909 339.22542235 576.13964844 343.19555664 C572.99409197 346.10649839 569.76955325 348.8535288 566.41772461 351.52294922 C560.84850981 356.00095357 555.67589082 360.85678488 550.50073242 365.78173828 C546.59952667 369.49034042 542.62835756 373.08837437 538.56298828 376.61621094 C535.79863662 379.03265953 533.10613131 381.5226925 530.41772461 384.02294922 C529.28898425 385.06870122 528.16007419 386.11427008 527.03100586 387.15966797 C526.46978027 387.67964355 525.90855469 388.19961914 525.33032227 388.73535156 C522.76259229 391.11003048 520.18450996 393.47333553 517.60522461 395.83544922 C516.14729492 397.1715625 516.14729492 397.1715625 514.65991211 398.53466797 C512.58405093 400.43559703 510.50542863 402.33346253 508.42553711 404.22998047 C507.62321655 404.96269165 507.62321655 404.96269165 506.8046875 405.71020508 C505.32359763 407.06268426 503.84140126 408.41395145 502.35913086 409.76513672 C500.6020794 411.40233125 498.87238753 413.06953291 497.17553711 414.76904297 C495.00875225 416.93245277 492.78913391 419.01024681 490.52001953 421.06518555 C483.48636574 427.43863273 476.76807763 434.09958502 470.11230469 440.86547852 C469.39196045 441.59420166 468.67161621 442.3229248 467.92944336 443.07373047 C467.29997803 443.71479736 466.6705127 444.35586426 466.02197266 445.01635742 C464.01244847 446.94252481 461.96322471 448.7666021 459.85864258 450.58642578 C455.86301389 454.06010884 452.0878455 457.70771406 448.35131836 461.45654297 C447.69116226 462.11574234 447.03100616 462.77494171 446.35084534 463.45411682 C444.96736955 464.83691757 443.58513378 466.22095997 442.20410156 467.60620117 C440.11040792 469.70525265 438.01142587 471.79890862 435.91186523 473.89208984 C434.5580289 475.24658708 433.20450286 476.60139453 431.85131836 477.95654297 C430.92602577 478.87879921 430.92602577 478.87879921 429.98204041 479.81968689 C426.24837141 483.57315946 422.72220889 487.45430632 419.25965881 491.45863342 C417.28497683 493.70916407 415.20801179 495.82979926 413.07397461 497.92919922 C412.27088867 498.72455078 411.46780273 499.51990234 410.64038086 500.33935547 C408.99194336 501.9617513 407.34350586 503.58414714 405.69506836 505.20654297 C401.33128693 509.52829761 397.14285298 513.91538098 393.14233398 518.57568359 C390.85512 521.20825174 388.36174943 523.60285628 385.85522461 526.02294922 C383.95745914 527.97493656 382.17041008 529.96811241 380.38647461 532.02294922 C376.14930812 536.90156309 371.71622247 541.58257622 367.27319336 546.27294922 C363.50876878 550.26339515 359.84030827 554.31790066 356.24389648 558.46044922 C354.24670806 560.75709216 352.2104598 563.01679393 350.16772461 565.27294922 C342.71996669 573.53432775 335.4835812 581.97107012 328.25268555 590.421875 C326.70760946 592.22636774 325.16069481 594.02926418 323.61303711 595.83154297 C318.57683129 601.69693487 313.54929471 607.5697313 308.54272461 613.46044922 C308.08115967 614.0012915 307.61959473 614.54213379 307.14404297 615.09936523 C305.16868505 617.42880727 303.36486324 619.72724127 301.66772461 622.27294922 C301.00772461 622.27294922 300.34772461 622.27294922 299.66772461 622.27294922 C299.39573242 622.85560547 299.12374023 623.43826172 298.84350586 624.03857422 C297.67720575 626.25493189 296.40628288 628.05958432 294.85522461 630.02294922 C294.23260742 630.81185547 293.60999023 631.60076172 292.96850586 632.41357422 C290.72204393 635.20544201 288.45795056 637.98204216 286.19018555 640.7565918 C280.48491521 647.73937599 274.91917993 654.80451668 269.47167969 661.99023438 C265.96533437 666.6059825 262.37961714 671.14479139 258.73022461 675.64794922 C252.37595106 683.51649519 246.41347949 691.65950515 240.4543457 699.82910156 C238.10178597 703.04707409 235.73212003 706.25224497 233.36230469 709.45751953 C188.96205841 769.54622298 148.05456671 832.66759214 112.75366211 898.53857422 C110.82956665 902.12846519 108.88182062 905.70217862 106.89428711 909.25732422 C91.25254116 937.308115 77.28227746 966.30299023 64.27270508 995.65722656 C62.80298273 998.96823781 61.31814866 1002.27193006 59.82788086 1005.57373047 C46.49893357 1035.26764957 34.60544002 1065.62297013 23.66772461 1096.27294922 C23.37724243 1097.08640808 23.08676025 1097.89986694 22.78747559 1098.73797607 C0.12092741 1162.37062866 -17.94232373 1227.85663444 -29.26586914 1294.49169922 C-29.42492737 1295.42314255 -29.5839856 1296.35458588 -29.74786377 1297.31425476 C-30.51607531 1301.82701687 -31.26751057 1306.34143347 -31.98803711 1310.86206055 C-32.25487939 1312.47432485 -32.52195636 1314.08655033 -32.78930664 1315.69873047 C-32.90149033 1316.43937744 -33.01367401 1317.18002441 -33.1292572 1317.94311523 C-33.47607422 1319.99291992 -33.47607422 1319.99291992 -34.33227539 1323.27294922 C-37.33227539 1325.27294922 -37.33227539 1325.27294922 -40.01977539 1324.89794922 C-40.78290039 1324.69169922 -41.54602539 1324.48544922 -42.33227539 1324.27294922 C-43.19451359 1321.34953933 -43.39823509 1318.96770218 -43.17382812 1315.93408203 C-43.08225433 1314.64067398 -43.08225433 1314.64067398 -42.98883057 1313.32113647 C-42.9152533 1312.38226593 -42.84167603 1311.44339539 -42.76586914 1310.47607422 C-42.65538239 1308.98281113 -42.65538239 1308.98281113 -42.54266357 1307.4593811 C-42.29365702 1304.14651264 -42.03292466 1300.83472295 -41.76977539 1297.52294922 C-41.67991364 1296.37538147 -41.59005188 1295.22781372 -41.49746704 1294.04547119 C-32.83725946 1184.19553237 -14.2791025 1075.46022808 121.66772461 693.27294922 C122.45493896 691.66347412 122.45493896 691.66347412 123.25805664 690.02148438 C129.40066902 677.50427901 135.80320342 665.16630152 142.54272461 652.96044922 C144.7409869 648.97679623 146.90310282 644.97590382 149.04272461 640.96044922 C156.91430359 626.18894102 165.11292191 611.65908937 173.66772461 597.27294922 C174.27229492 596.25346191 174.87686523 595.23397461 175.49975586 594.18359375 C190.77343036 568.45549099 206.72661562 543.18663627 223.29272461 518.27294922 C224.03848755 517.15073975 224.03848755 517.15073975 224.79931641 516.00585938 C225.26378174 515.31024902 225.72824707 514.61463867 226.20678711 513.89794922 C226.63378906 513.25470703 227.06079102 512.61146484 227.50073242 511.94873047 C228.66772461 510.27294922 228.66772461 510.27294922 230.56616211 508.08544922 C231.90926424 506.29541753 231.90926424 506.29541753 231.39453125 503.98242188 C230.61818912 501.08828518 229.5411373 498.75661382 228.14038086 496.10888672 C227.60485596 495.08746582 227.06933105 494.06604492 226.51757812 493.01367188 C225.92775146 491.9029834 225.3379248 490.79229492 224.73022461 489.64794922 C223.78032091 487.84124688 222.83283217 486.03329014 221.88536072 484.22531128 C221.21100431 482.93890096 220.53590691 481.65287884 219.86012268 480.36721802 C216.15271807 473.31001437 212.51234386 466.21869208 208.87347412 459.12597656 C206.95520342 455.38754542 205.03422476 451.65050698 203.11303711 447.91357422 C202.54765732 446.81378235 202.54765732 446.81378235 201.97085571 445.69177246 C197.75649099 437.49666056 193.52050657 429.31279023 189.28344727 421.12939453 C184.90939964 412.67934457 180.54874444 404.22247616 176.19378662 395.76257324 C168.94243761 381.67621283 161.66503008 367.60368755 154.36499023 353.54248047 C151.48524461 347.99507635 148.6076292 342.4465679 145.73022461 336.89794922 C145.15651123 335.79177246 144.58279785 334.6855957 143.99169922 333.54589844 C140.9491316 327.67811979 137.90958618 321.80879485 134.87475586 315.93701172 C134.40051178 315.01946106 134.40051178 315.01946106 133.91668701 314.08337402 C133.60040344 313.47143188 133.28411987 312.85948975 132.95825195 312.22900391 C127.37672854 301.4299772 121.78023353 290.63906771 116.15112305 279.86474609 C109.36132069 266.86492438 102.62328464 253.83820686 95.87670898 240.81591797 C89.33826826 228.19637008 82.79169439 215.58129888 76.21069336 202.98388672 C72.30555278 195.50507638 68.42250595 188.01494078 64.54272461 180.52294922 C60.60839436 172.92679645 56.66222758 165.3376428 52.66772461 157.77294922 C48.06126634 149.04934941 43.52143266 140.29172118 38.98461914 131.53173828 C33.72497877 121.37745292 28.43884757 111.23718462 23.14428711 101.10107422 C21.629999 98.2006917 20.11737952 95.29944443 18.60522461 92.39794922 C13.57781065 82.75260841 8.53921427 73.11353253 3.46508789 63.49267578 C1.1622248 59.12304609 -1.12940676 54.74778984 -3.41040039 50.36669922 C-3.93762695 49.35414063 -4.46485352 48.34158203 -5.00805664 47.29833984 C-6.02204338 45.34962339 -7.03513456 43.40044054 -8.04711914 41.45068359 C-10.98296432 35.80823046 -14.00075506 30.22422892 -17.12426758 24.68310547 C-19.43100044 20.08082843 -20.0237873 15.39013733 -19.33227539 10.27294922 C-15.27578065 1.83544015 -8.69177907 -0.38166266 0 0 Z M408.96850586 249.74169922 C405.68727408 253.09384171 402.46676453 256.4569959 399.41772461 260.02294922 C395.88714128 264.13656466 392.07326436 267.92798634 388.1940918 271.70947266 C384.7890927 275.0554124 381.63798236 278.56152213 378.51538086 282.17138672 C374.67866963 286.53534157 370.63200757 290.70706541 366.62866211 294.91748047 C362.73147281 299.03285218 358.93068194 303.20898873 355.2175293 307.49121094 C353.2774762 309.72159964 351.28722158 311.90372935 349.29272461 314.08544922 C346.1824361 317.52673127 343.20294149 321.0361622 340.29272461 324.64794922 C337.04819514 328.66121738 333.68020995 332.49705789 330.16772461 336.27294922 C325.91247177 340.85230681 321.89450237 345.56580352 317.97241211 350.43701172 C315.45977997 353.52882687 312.88121564 356.5572917 310.29272461 359.58544922 C306.06477594 364.54805448 302.00125764 369.61695145 298.00195312 374.76489258 C294.33437191 379.4691183 290.54526678 384.06292717 286.73022461 388.64794922 C281.70910856 394.69875841 276.88851944 400.85846157 272.21142578 407.17822266 C268.40443937 412.31812743 264.49032281 417.36546615 260.54272461 422.39794922 C255.17209281 429.26418158 250.02662156 436.2468672 245.01293945 443.37597656 C241.81992156 447.87865334 238.55880131 452.3332936 235.30810547 456.79443359 C234.27367259 458.2208808 233.24564774 459.65199889 232.22436523 461.08789062 C231.13483062 462.61727186 230.0278099 464.13427726 228.90795898 465.64160156 C228.34915039 466.42100098 227.7903418 467.20040039 227.21459961 468.00341797 C226.70251953 468.70233154 226.19043945 469.40124512 225.6628418 470.12133789 C224.34074613 472.97993189 224.71730923 474.30080319 225.66772461 477.27294922 C226.44289974 478.99498031 227.28241255 480.68897375 228.17163086 482.35498047 C228.66469727 483.28632812 229.15776367 484.21767578 229.66577148 485.17724609 C230.18204102 486.13695312 230.69831055 487.09666016 231.23022461 488.08544922 C231.75036133 489.06449219 232.27049805 490.04353516 232.80639648 491.05224609 C234.08781629 493.46225582 235.37507171 495.86895141 236.66772461 498.27294922 C239.32486292 495.71994926 241.57751351 493.17507843 243.66381836 490.14013672 C244.21537598 489.34357666 244.76693359 488.5470166 245.33520508 487.72631836 C245.91931152 486.87545654 246.50341797 486.02459473 247.10522461 485.14794922 C248.36595623 483.33085768 249.62769551 481.51446491 250.89038086 479.69873047 C251.84195068 478.329021 251.84195068 478.329021 252.81274414 476.93164062 C261.49667083 464.4852124 270.58477399 452.35976008 279.81616211 440.31591797 C282.70745514 436.54097617 285.56309478 432.74203423 288.3972168 428.92407227 C293.99027552 421.39142469 299.81667536 414.08193555 305.76538086 406.82763672 C308.57464753 403.39977473 311.29896325 399.91263453 314.00366211 396.40185547 C317.47610276 391.95941379 321.08688204 387.62802802 324.66772461 383.27294922 C325.38959961 382.38607422 326.11147461 381.49919922 326.85522461 380.58544922 C335.60159392 369.83990978 344.6062988 359.31523348 353.63647461 348.80810547 C355.64545803 346.46924077 357.64479994 344.12266116 359.63647461 341.76904297 C365.32447254 335.06192202 371.14896189 328.52169483 377.16137695 322.10327148 C379.90071955 319.1789053 382.61049276 316.24348828 385.23022461 313.21044922 C389.68624949 308.05544005 394.34185452 303.08205446 398.97924805 298.09082031 C400.13189378 296.84984285 401.28354351 295.6079397 402.43432617 294.36523438 C409.381137 286.86365657 416.34994918 279.4164919 423.66772461 272.27294922 C422.06096008 266.81701251 419.61741567 261.94273451 417.04272461 256.89794922 C416.62249023 256.06650391 416.20225586 255.23505859 415.76928711 254.37841797 C414.73906386 252.34138563 413.7051364 250.30632733 412.66772461 248.27294922 C410.5455723 248.05497029 410.5455723 248.05497029 408.96850586 249.74169922 Z " fill="#F06D35" transform="translate(357.332275390625,289.72705078125)"/>
<path d="M0 0 C0.78479012 0.01746843 1.56958025 0.03493687 2.37815189 0.05293465 C4.01111266 0.09103674 5.64389192 0.13788853 7.27635574 0.19333649 C9.50882234 0.26765909 11.7397412 0.31646895 13.97311401 0.35247803 C17.63060006 0.41266951 21.28721154 0.49417441 24.9441185 0.58246803 C29.35714711 0.68818986 33.77039024 0.78447119 38.18359375 0.88256836 C39.6164698 0.91464968 39.6164698 0.91464968 41.07829285 0.94737911 C77.66095428 1.76544992 114.24284751 2.37639333 150.83178711 2.81591797 C152.1999908 2.83240119 152.1999908 2.83240119 153.59583497 2.84921741 C172.07111226 3.07156485 190.5464775 3.28564732 209.0220015 3.48648208 C216.08570156 3.56334444 223.1493717 3.64264973 230.21302676 3.72353989 C234.33949785 3.77059126 238.46597295 3.81609028 242.59250259 3.85771751 C295.9928412 4.39804412 295.9928412 4.39804412 305.66772461 12.27294922 C309.37616674 16.35582808 311.95593326 20.36659911 314.24194336 25.39794922 C314.56312134 26.08493393 314.88429932 26.77191864 315.21520996 27.47972107 C316.27005582 29.74042692 317.31244385 32.0066564 318.35522461 34.27294922 C319.10137408 35.87636195 319.84854585 37.4792993 320.59667969 39.08178711 C322.1642089 42.44093838 323.72779924 45.80188134 325.28881836 49.1640625 C328.72908953 56.56392096 332.2222905 63.93867954 335.71832275 71.31231689 C336.85781513 73.71591356 337.99598068 76.12013538 339.1340332 78.52441406 C344.26822982 89.36350514 349.47216825 100.16710815 354.70727539 110.95776367 C358.46910406 118.73231797 362.12315969 126.55058803 365.73022461 134.39794922 C372.71219808 149.56796352 380.08643274 164.54388826 387.43511963 179.53866577 C388.09746613 180.89020248 388.09746613 180.89020248 388.77319336 182.26904297 C389.20750671 183.15516266 389.64182007 184.04128235 390.08929443 184.95425415 C393.71701982 192.36126051 397.29413414 199.7909516 400.83789062 207.23852539 C403.83589247 213.53903691 406.86059502 219.82629353 409.8984375 226.10766602 C411.10621093 228.60516046 412.31109029 231.10401482 413.51318359 233.60424805 C416.25494845 239.30351087 419.01682132 244.99017808 421.85131836 250.64404297 C422.56952759 252.09593018 422.56952759 252.09593018 423.30224609 253.57714844 C424.18866554 255.3677379 425.08725675 257.15237216 426 258.9296875 C426.38534912 259.71456543 426.77069824 260.49944336 427.16772461 261.30810547 C427.50803711 261.98236572 427.84834961 262.65662598 428.19897461 263.35131836 C428.66772461 265.27294922 428.66772461 265.27294922 427.94897461 267.39575195 C426.66772461 269.27294922 426.66772461 269.27294922 423.66772461 271.27294922 C422.01476342 268.19338633 420.37162289 265.10868842 418.73022461 262.02294922 C418.26165039 261.15025391 417.79307617 260.27755859 417.31030273 259.37841797 C416.86235352 258.53408203 416.4144043 257.68974609 415.95288086 256.81982422 C415.53917236 256.04477539 415.12546387 255.26972656 414.69921875 254.47119141 C413.72844021 252.40234172 413.13214032 250.50392231 412.66772461 248.27294922 C407.3223058 252.67163173 402.66335498 257.3998926 398.09350586 262.59326172 C394.68637845 266.35701277 391.07273525 269.89268358 387.44116211 273.43701172 C384.68670206 276.25354411 382.11525372 279.17307921 379.53735352 282.14941406 C375.69067054 286.51849849 371.63921946 290.6994805 367.62866211 294.91748047 C363.73147281 299.03285218 359.93068194 303.20898873 356.2175293 307.49121094 C354.2774762 309.72159964 352.28722158 311.90372935 350.29272461 314.08544922 C347.1824361 317.52673127 344.20294149 321.0361622 341.29272461 324.64794922 C338.04819514 328.66121738 334.68020995 332.49705789 331.16772461 336.27294922 C326.91247177 340.85230681 322.89450237 345.56580352 318.97241211 350.43701172 C316.45977997 353.52882687 313.88121564 356.5572917 311.29272461 359.58544922 C307.06477594 364.54805448 303.00125764 369.61695145 299.00195312 374.76489258 C295.33437191 379.4691183 291.54526678 384.06292717 287.73022461 388.64794922 C282.70910856 394.69875841 277.88851944 400.85846157 273.21142578 407.17822266 C269.40443937 412.31812743 265.49032281 417.36546615 261.54272461 422.39794922 C256.17209281 429.26418158 251.02662156 436.2468672 246.01293945 443.37597656 C242.81992156 447.87865334 239.55880131 452.3332936 236.30810547 456.79443359 C235.27367259 458.2208808 234.24564774 459.65199889 233.22436523 461.08789062 C232.13483062 462.61727186 231.0278099 464.13427726 229.90795898 465.64160156 C229.34915039 466.42100098 228.7903418 467.20040039 228.21459961 468.00341797 C227.70251953 468.70233154 227.19043945 469.40124512 226.6628418 470.12133789 C225.34079401 472.97982835 225.70282408 474.30567293 226.66772461 477.27294922 C227.83946344 479.7012746 227.83946344 479.7012746 229.31225586 482.10888672 C229.82336914 483.00865234 230.33448242 483.90841797 230.86108398 484.83544922 C231.94204476 486.71311329 233.04115683 488.58044189 234.15795898 490.43701172 C237.94163937 497.20221291 237.94163937 497.20221291 237.09887695 500.49658203 C235.99194336 502.43701172 235.99194336 502.43701172 233.66772461 505.27294922 C231.38868606 502.38806382 229.62498106 499.47411112 227.94506836 496.20654297 C227.41598877 495.18189941 226.88690918 494.15725586 226.34179688 493.1015625 C225.76872803 491.98249512 225.19565918 490.86342773 224.60522461 489.71044922 C223.9908847 488.51741081 223.37621122 487.32454413 222.76123047 486.13183594 C221.08161964 482.87203175 219.40663811 479.609869 217.73254395 476.347229 C215.91381698 472.80432886 214.09136693 469.26334459 212.26928711 465.72216797 C209.98391002 461.27998873 207.69897989 456.83758148 205.41577148 452.39428711 C200.05558901 441.96367133 194.67551612 431.54355915 189.28344727 421.12939453 C184.90939964 412.67934457 180.54874444 404.22247616 176.19378662 395.76257324 C168.94243761 381.67621283 161.66503008 367.60368755 154.36499023 353.54248047 C151.48524461 347.99507635 148.6076292 342.4465679 145.73022461 336.89794922 C145.15651123 335.79177246 144.58279785 334.6855957 143.99169922 333.54589844 C140.9491316 327.67811979 137.90958618 321.80879485 134.87475586 315.93701172 C134.40051178 315.01946106 134.40051178 315.01946106 133.91668701 314.08337402 C133.60040344 313.47143188 133.28411987 312.85948975 132.95825195 312.22900391 C127.37672854 301.4299772 121.78023353 290.63906771 116.15112305 279.86474609 C109.36132069 266.86492438 102.62328464 253.83820686 95.87670898 240.81591797 C89.33826826 228.19637008 82.79169439 215.58129888 76.21069336 202.98388672 C72.30555278 195.50507638 68.42250595 188.01494078 64.54272461 180.52294922 C60.60839436 172.92679645 56.66222758 165.3376428 52.66772461 157.77294922 C48.06126634 149.04934941 43.52143266 140.29172118 38.98461914 131.53173828 C33.72497877 121.37745292 28.43884757 111.23718462 23.14428711 101.10107422 C21.629999 98.2006917 20.11737952 95.29944443 18.60522461 92.39794922 C13.57781065 82.75260841 8.53921427 73.11353253 3.46508789 63.49267578 C1.1622248 59.12304609 -1.12940676 54.74778984 -3.41040039 50.36669922 C-3.93762695 49.35414063 -4.46485352 48.34158203 -5.00805664 47.29833984 C-6.02204338 45.34962339 -7.03513456 43.40044054 -8.04711914 41.45068359 C-10.98296432 35.80823046 -14.00075506 30.22422892 -17.12426758 24.68310547 C-19.43100044 20.08082843 -20.0237873 15.39013733 -19.33227539 10.27294922 C-15.27578065 1.83544015 -8.69177907 -0.38166266 0 0 Z " fill="#EFA734" transform="translate(357.332275390625,289.72705078125)"/>
<path d="M0 0 C1.02854599 0.31321198 2.05709198 0.62642395 3.11680603 0.9491272 C6.55040342 1.99722531 9.98025527 3.0570609 13.41015625 4.1171875 C15.86393235 4.86934609 18.31787563 5.62095949 20.77197266 6.37207031 C29.01030079 8.89671102 37.24187441 11.44307087 45.47265625 13.9921875 C46.2179232 14.22293472 46.96319016 14.45368195 47.73104095 14.69142151 C58.80540369 18.12035556 69.87761081 21.55620849 80.94841766 24.99660492 C83.34499159 25.74135944 85.74161774 26.48594571 88.13824463 27.23052979 C116.95523213 36.18462613 116.95523213 36.18462613 130.14044189 40.36700439 C134.13019171 41.63220277 138.12223915 42.89004619 142.11456299 44.14709473 C144.70077759 44.96548639 147.28274464 45.79636129 149.86474609 46.62792969 C151.37576421 47.10418987 152.88697974 47.57982442 154.3984375 48.0546875 C155.38498573 48.37931976 155.38498573 48.37931976 156.39146423 48.71051025 C162.55971755 50.61858072 166.01230471 49.41193265 171.63639832 46.49131775 C172.27845718 46.1500032 172.92051605 45.80868866 173.58203125 45.45703125 C174.26135208 45.10262466 174.94067291 44.74821808 175.64057922 44.3830719 C177.08845089 43.62735774 178.53497686 42.86906065 179.98025513 42.10839844 C183.7336145 40.13545716 187.50026001 38.18818267 191.265625 36.23828125 C191.99635727 35.85936737 192.72708954 35.48045349 193.47996521 35.09005737 C213.88697265 24.51584203 235.14798884 15.66131377 257.47265625 9.9921875 C258.67664062 9.67378906 259.880625 9.35539063 261.12109375 9.02734375 C269.83040542 7.04629487 278.31378679 6.68804662 287.22265625 6.6171875 C288.34720215 6.60324951 289.47174805 6.58931152 290.63037109 6.57495117 C304.61268757 6.6539647 319.63425127 10.33597836 330.0703125 20.26171875 C335.53271392 27.00223081 336.17691521 34.75925489 335.9140625 43.1875 C333.60174623 63.11843843 317.19036455 79.65270512 303.57128906 93.15429688 C302.09853102 94.61631911 300.6368058 96.08876238 299.17578125 97.5625 C292.93922388 103.8077989 286.37360558 109.48643615 279.47265625 114.9921875 C278.34819795 115.93957524 277.22860073 116.89281064 276.1171875 117.85546875 C270.46135931 122.74678499 264.69951157 127.43535534 258.72265625 131.9296875 C258.06491211 132.42976318 257.40716797 132.92983887 256.72949219 133.44506836 C253.15266391 136.12768957 249.53431136 138.60602492 245.7109375 140.92578125 C244.93008789 141.41892822 244.14923828 141.9120752 243.34472656 142.42016602 C241.85171308 143.35558789 240.33450083 144.25389012 238.79199219 145.10522461 C236.47889667 146.57975465 235.1034734 147.77543641 233.47265625 149.9921875 C232.87014162 152.92977341 232.87014162 152.92977341 232.79260254 156.24719238 C232.69941238 158.12784645 232.69941238 158.12784645 232.6043396 160.04649353 C232.56088409 161.34857254 232.51742859 162.65065155 232.47265625 163.9921875 C232.43153717 165.21092056 232.39041809 166.42965363 232.34805298 167.68531799 C232.23975622 171.61741625 232.1652506 175.54945142 232.09960938 179.48242188 C232.07184964 180.97946767 232.04375823 182.47650734 232.0153656 183.97354126 C231.95538747 187.17295382 231.89771176 190.37239617 231.84190369 193.57188416 C231.75287971 198.67466211 231.65853978 203.77733409 231.56359863 208.88000488 C231.41324347 216.99405776 231.26638527 225.10816953 231.12103128 233.2223134 C230.86266632 247.64128739 230.59912134 262.0601665 230.33317327 276.47900248 C230.25544487 280.699783 230.17846943 284.92057433 230.10340881 289.1414032 C230.07484406 290.74640918 230.04627457 292.35141508 230.0177002 293.9564209 C229.99670281 295.13745179 229.99670281 295.13745179 229.97528124 296.3423419 C229.86430831 302.51805362 229.73767581 308.69337995 229.60771132 314.86871767 C229.50522095 319.89729771 229.43427221 324.9255916 229.37841177 329.95489645 C229.33594336 333.48643387 229.27764494 337.01760928 229.21648502 340.54886723 C229.19087203 342.23741165 229.1721413 343.92607602 229.16065884 345.61477566 C229.14397722 347.94962162 229.10311874 350.28289115 229.0567627 352.61730957 C229.05781667 353.30780049 229.05887064 353.99829142 229.05995655 354.70970631 C228.96865017 358.06343048 228.68723542 359.72653177 226.55134773 362.37082767 C224.6461744 363.85684497 222.7744169 365.22041273 220.71240234 366.47827148 C219.98356842 366.928965 219.2547345 367.37965851 218.5038147 367.8440094 C217.32436783 368.56511147 217.32436783 368.56511147 216.12109375 369.30078125 C204.91632973 376.26446183 194.00985238 383.64409636 183.09765625 391.0546875 C180.21030599 393.01282278 177.3223724 394.97008599 174.43344116 396.92588806 C172.65722697 398.12863655 170.88196386 399.33279123 169.1078186 400.53858948 C158.02032492 408.05303957 158.02032492 408.05303957 154.66015625 407.6796875 C153.57734375 407.339375 153.57734375 407.339375 152.47265625 406.9921875 C150.21826262 398.1702376 149.33460673 389.19874642 148.31787109 380.17163086 C148.11109257 378.36732353 147.90389239 376.56306447 147.69630432 374.7588501 C147.13638012 369.88192065 146.58232925 365.00434011 146.02935743 360.12661815 C145.44956573 355.02132137 144.86433726 349.91664791 144.2796936 344.81190491 C143.1744919 335.15470502 142.07415679 325.49695717 140.97558367 315.83900124 C139.72420306 304.83977852 138.46737612 293.84118029 137.21009898 282.84263027 C134.62490519 260.22650403 132.04652697 237.60960498 129.47265625 214.9921875 C125.51483339 214.9921875 124.80541463 216.23948677 121.97265625 218.9296875 C117.57235102 223.01159148 113.04396793 226.84320502 108.37890625 230.6171875 C105.26873341 233.15883412 102.21353632 235.75801061 99.16015625 238.3671875 C94.72433332 242.15031548 90.20673635 245.79765711 85.59765625 249.3671875 C79.91508629 253.77175293 74.48212641 258.41024861 69.08081055 263.15356445 C64.4043093 267.2390693 59.58934142 271.09578297 54.6784668 274.89404297 C49.83036803 278.66273304 45.14793238 282.60117242 40.53564453 286.65478516 C37.84049986 289.01466332 35.17419414 291.20552995 32.25390625 293.29296875 C27.13099663 296.98011554 24.07831089 299.48765956 22.85205078 305.83398438 C22.6204425 306.98560059 22.38883423 308.1372168 22.15020752 309.32373047 C21.81481964 311.1396167 21.81481964 311.1396167 21.47265625 312.9921875 C21.23891296 314.17828613 21.00516968 315.36438477 20.76434326 316.58642578 C20.01674063 320.41551389 19.29995165 324.24977957 18.58984375 328.0859375 C18.32773407 329.49032174 18.06536928 330.89465838 17.80276489 332.2989502 C17.12016993 335.95263866 16.44079303 339.60691768 15.76220703 343.26135254 C14.93461284 347.71491079 14.10319662 352.16775683 13.27232552 356.62070465 C12.62678901 360.08073983 11.98180846 363.54087537 11.33859253 367.00134277 C11.10810211 368.24033325 10.87761169 369.47932373 10.64013672 370.75585938 C10.43822723 371.84249878 10.23631775 372.92913818 10.02828979 374.04870605 C9.84493073 375.02005493 9.66157166 375.99140381 9.47265625 376.9921875 C9.3235379 377.90456177 9.17441956 378.81693604 9.02078247 379.75695801 C8.17330268 383.21293538 6.43113353 384.06012071 3.47265625 385.9921875 C-9.8057692 393.76147898 -22.08439963 394.289007 -36.83984375 390.84375 C-39.52734375 389.9921875 -39.52734375 389.9921875 -41.52734375 387.9921875 C-42.18977356 385.72473145 -42.18977356 385.72473145 -42.77661133 382.85351562 C-43.00057083 381.77638306 -43.22453033 380.69925049 -43.45527649 379.58947754 C-43.691754 378.41268433 -43.92823151 377.23589111 -44.171875 376.0234375 C-44.42353928 374.8005603 -44.67520355 373.57768311 -44.93449402 372.31774902 C-45.60717435 369.04082761 -46.27306851 365.76266766 -46.93597412 362.48376465 C-47.59103227 359.25351719 -48.25614638 356.02534059 -48.91992188 352.796875 C-52.24898272 336.55270453 -55.43814842 320.28359377 -58.52734375 303.9921875 C-59.07551758 303.81808853 -59.62369141 303.64398956 -60.18847656 303.46461487 C-65.68201197 301.68216363 -70.98010699 299.62752187 -76.27734375 297.33203125 C-77.08563629 296.98560577 -77.89392883 296.6391803 -78.72671509 296.28225708 C-80.44415519 295.5461702 -82.16099171 294.80867366 -83.8772583 294.06985474 C-96.58356614 288.60311935 -109.30369125 283.17936861 -122.15234375 278.0546875 C-123.13847656 277.66079834 -124.12460937 277.26690918 -125.140625 276.86108398 C-128.75857256 275.42919479 -132.28868305 274.06083238 -136.03125 272.984375 C-138.52734375 271.9921875 -138.52734375 271.9921875 -139.953125 270.15234375 C-140.24574219 269.46011719 -140.53835938 268.76789063 -140.83984375 268.0546875 C-141.29810547 267.02021484 -141.29810547 267.02021484 -141.765625 265.96484375 C-144.90965537 257.82261124 -144.66892237 248.87023151 -141.52734375 240.7421875 C-138.76564813 234.86372111 -135.13168458 229.58689581 -130.52734375 224.9921875 C-127.22270782 223.89064219 -126.71607655 224.16699483 -123.52734375 224.9921875 C-121.55389817 225.05628938 -119.57823265 225.0616816 -117.60400391 225.02978516 C-116.40820709 225.01291656 -115.21241028 224.99604797 -113.9803772 224.97866821 C-112.68876678 224.9547702 -111.39715637 224.93087219 -110.06640625 224.90625 C-108.71561235 224.88444277 -107.3648126 224.86299495 -106.01400757 224.84188843 C-103.17772683 224.79640128 -100.34154146 224.74721858 -97.50537109 224.6953125 C-93.9107713 224.62971982 -90.31610106 224.57212597 -86.72132301 224.51728249 C-83.92588103 224.47388562 -81.13051466 224.42660048 -78.33515549 224.37818527 C-76.37805963 224.34480167 -74.42091767 224.31415622 -72.46377563 224.28359985 C-66.2625329 224.16651463 -60.07163504 223.96449442 -53.87915039 223.60961914 C-52.76447891 223.54585587 -51.64980743 223.48209259 -50.50135803 223.41639709 C-45.85593435 222.7537798 -42.89875542 220.73106817 -39.33984375 217.8046875 C-38.29074829 217.00599243 -38.29074829 217.00599243 -37.22045898 216.19116211 C-35.73499986 215.05904752 -34.25858512 213.91497644 -32.79101562 212.75976562 C-29.73579678 210.37411156 -26.61030377 208.09084884 -23.48120117 205.8034668 C-21.07440698 204.04339872 -18.6771602 202.27094119 -16.28125 200.49609375 C-11.72141696 197.12667195 -7.12948496 193.80349037 -2.52734375 190.4921875 C3.66928973 186.03210374 9.8324182 181.52958988 15.97265625 176.9921875 C24.34026707 170.81062461 32.76023928 164.70496757 41.20361328 158.62744141 C43.55465152 156.93309515 45.9027085 155.23468878 48.25 153.53515625 C55.95009818 147.96121048 63.65172742 142.39609561 71.47265625 136.9921875 C58.36274037 128.37396982 45.0293961 120.14035841 31.65283203 111.94384766 C26.9808296 109.07665992 22.31956727 106.19227818 17.66015625 103.3046875 C16.80993896 102.7780249 15.95972168 102.2513623 15.08374023 101.70874023 C11.70557994 99.61590041 8.32789984 97.52228622 4.95019531 95.42871094 C-23.83422523 77.58969674 -52.65186694 59.8001987 -81.75341797 42.48144531 C-82.50768066 42.03124023 -83.26194336 41.58103516 -84.0390625 41.1171875 C-84.69350342 40.72789062 -85.34794434 40.33859375 -86.0222168 39.9375 C-87.52734375 38.9921875 -87.52734375 38.9921875 -88.52734375 37.9921875 C-89.08984375 35.2421875 -89.08984375 35.2421875 -88.52734375 31.9921875 C-81.79736639 27.21687268 -74.2997405 23.67714296 -66.96484375 19.9296875 C-65.02732325 18.93529394 -63.09039771 17.93974855 -61.15353394 16.94407654 C-59.84784687 16.27291957 -58.54195883 15.60215344 -57.23587036 14.93177795 C-53.08962322 12.80208236 -48.95489814 10.65165974 -44.828125 8.484375 C-43.80211182 7.94562744 -42.77609863 7.40687988 -41.71899414 6.85180664 C-39.81996673 5.85304021 -37.92194221 4.85236349 -36.02514648 3.84936523 C-33.53611277 2.54250017 -31.03375785 1.26531105 -28.52734375 -0.0078125 C-27.76228516 -0.42111816 -26.99722656 -0.83442383 -26.20898438 -1.26025391 C-25.46326172 -1.63714355 -24.71753906 -2.0140332 -23.94921875 -2.40234375 C-23.31081055 -2.7372583 -22.67240234 -3.07217285 -22.01464844 -3.41723633 C-14.70859155 -5.15195871 -6.94037818 -2.16013756 0 0 Z " fill="#F06D35" transform="translate(1068.52734375,150.0078125)"/>
</svg>
